<?xml version="1.0" encoding="UTF-8" standalone="no"?>
<svg
   id="color-fill"
   version="1.1"
   width="300"
   height="323.37238"
   sodipodi:docname="hexagon.svg"
   inkscape:version="1.3.2 (091e20e, 2023-11-25, custom)"
   xmlns:inkscape="http://www.inkscape.org/namespaces/inkscape"
   xmlns:sodipodi="http://sodipodi.sourceforge.net/DTD/sodipodi-0.dtd"
   xmlns="http://www.w3.org/2000/svg"
   xmlns:svg="http://www.w3.org/2000/svg">
  <defs
     id="defs1" />
  <sodipodi:namedview
     id="namedview1"
     pagecolor="#505050"
     bordercolor="#eeeeee"
     borderopacity="1"
     inkscape:showpageshadow="0"
     inkscape:pageopacity="0"
     inkscape:pagecheckerboard="0"
     inkscape:deskcolor="#505050"
     inkscape:zoom="1.3930004"
     inkscape:cx="109.83486"
     inkscape:cy="156.13779"
     inkscape:window-width="1440"
     inkscape:window-height="829"
     inkscape:window-x="-8"
     inkscape:window-y="-8"
     inkscape:window-maximized="1"
     inkscape:current-layer="color-fill" />
  <polygon
     class="hex"
     points="225,280 75,280 0,150 75,20 225,20 300,150 "
     fill="#ff0000"
     id="polygon6"
     style="fill:#008000"
     transform="matrix(0.93297748,-0.5386548,0.5386548,0.93297748,-70.744843,102.53778)" />
  <polygon
     class="hex"
     points="75,20 225,20 300,150 225,280 75,280 0,150 "
     fill="#ff0000"
     id="polygon1"
     style="fill:#ff00ff"
     transform="translate(0,11.686183)" />
  <g
     id="g5"
     style="fill:#ffff00"
     transform="matrix(0.92012464,0,0,0.92012464,11.981303,23.667486)">
    <polygon
       class="hex"
       points="75,20 225,20 300,150 225,280 75,280 0,150 "
       fill="#ff0000"
       id="polygon4"
       transform="matrix(0.76725751,-0.20558603,0.20558603,0.76725751,4.0734703,65.749281)"
       style="fill:#ffff00" />
    <polygon
       class="hex"
       points="225,20 300,150 225,280 75,280 0,150 75,20 "
       fill="#ff0000"
       id="polygon5"
       transform="matrix(0.56167148,-0.56167148,0.56167148,0.56167148,-18.501443,150)"
       style="fill:#ffff00" />
  </g>
  <polygon
     class="hex"
     points="300,150 225,280 75,280 0,150 75,20 225,20 "
     fill="#ff0000"
     id="polygon2"
     transform="matrix(0.61334192,-0.35411312,0.35411312,0.61334192,4.8817443,122.80186)"
     style="fill:#800080" />
  <polygon
     class="hex"
     points="75,280 0,150 75,20 225,20 300,150 225,280 "
     fill="#ff0000"
     id="polygon3"
     transform="matrix(0.33824456,0,0,0.33824456,99.263316,110.9495)"
     style="fill:#ff0000;fill-opacity:1" />
</svg>
